HIERARCHY
ROOT Hips
{
	OFFSET 292.461487 92.071327 404.531097
	CHANNELS 6 Xposition Yposition Zposition Zrotation Yrotation Xrotation 
	JOINT LeftUpLeg
	{
		OFFSET 0.103459 1.857814 10.548504
		CHANNELS 3 Zrotation Yrotation Xrotation
		JOINT LeftLeg
		{
			OFFSET 43.500000 -0.000004 -0.000011
			CHANNELS 3 Zrotation Yrotation Xrotation
			JOINT LeftFoot
			{
				OFFSET 42.372196 -0.000004 0.000004
				CHANNELS 3 Zrotation Yrotation Xrotation
				JOINT LeftToe
				{
					OFFSET 17.300003 0.000001 -0.000008
					CHANNELS 3 Zrotation Yrotation Xrotation
					End Site
					{
						OFFSET 0.000000 0.000000 0.000000
					}
				}
			}
		}
	}
	JOINT RightUpLeg
	{
		OFFSET 0.103457 1.857841 -10.548511
		CHANNELS 3 Zrotation Yrotation Xrotation
		JOINT RightLeg
		{
			OFFSET 43.500042 -0.000038 0.000000
			CHANNELS 3 Zrotation Yrotation Xrotation
			JOINT RightFoot
			{
				OFFSET 42.372269 -0.000023 0.000011
				CHANNELS 3 Zrotation Yrotation Xrotation
				JOINT RightToe
				{
					OFFSET 17.300003 -0.000001 0.000023
					CHANNELS 3 Zrotation Yrotation Xrotation
					End Site
					{
						OFFSET 0.000000 0.000000 0.000000
					}
				}
			}
		}
	}
	JOINT Spine
	{
		OFFSET 6.901971 -2.603744 -0.000012
		CHANNELS 3 Zrotation Yrotation Xrotation
		JOINT Spine1
		{
			OFFSET 12.588097 -0.000002 0.000018
			CHANNELS 3 Zrotation Yrotation Xrotation
			JOINT Spine2
			{
				OFFSET 12.343208 0.000014 -0.000019
				CHANNELS 3 Zrotation Yrotation Xrotation
				JOINT Neck
				{
					OFFSET 25.832897 0.000008 0.000016
					CHANNELS 3 Zrotation Yrotation Xrotation
					JOINT Head
					{
						OFFSET 11.766600 -0.000006 0.000008
						CHANNELS 3 Zrotation Yrotation Xrotation
						End Site
						{
							OFFSET 0.000000 0.000000 0.000000
						}
					}
				}
				JOINT LeftShoulder
				{
					OFFSET 19.745909 -1.480356 6.000120
					CHANNELS 3 Zrotation Yrotation Xrotation
					JOINT LeftArm
					{
						OFFSET 11.284115 -0.000000 -0.000025
						CHANNELS 3 Zrotation Yrotation Xrotation
						JOINT LeftForeArm
						{
							OFFSET 33.000057 0.000003 0.000029
							CHANNELS 3 Zrotation Yrotation Xrotation
							JOINT LeftHand
							{
								OFFSET 25.200006 0.000029 0.000011
								CHANNELS 3 Zrotation Yrotation Xrotation
								End Site
								{
									OFFSET 0.000000 0.000000 0.000000
								}
							}
						}
					}
				}
				JOINT RightShoulder
				{
					OFFSET 19.746088 -1.480379 -6.000049
					CHANNELS 3 Zrotation Yrotation Xrotation
					JOINT RightArm
					{
						OFFSET 11.284159 -0.000019 -0.000011
						CHANNELS 3 Zrotation Yrotation Xrotation
						JOINT RightForeArm
						{
							OFFSET 33.000076 -0.000001 0.000001
							CHANNELS 3 Zrotation Yrotation Xrotation
							JOINT RightHand
							{
								OFFSET 25.199781 0.000139 0.000430
								CHANNELS 3 Zrotation Yrotation Xrotation
								End Site
								{
									OFFSET 0.000000 0.000000 0.000000
								}
							}
						}
					}
				}
			}
		}
	}
}
MOTION
Frames: 8
Frame Time: 0.033333
292.585602 91.892906 405.256592 89.379992 3.955007 87.112738 -174.651612 -2.438707 179.047781 -9.638385 -2.635303 -3.696502 83.779770 2.278761 -1.648131 21.454553 0.003088 0.000000 -178.192423 0.923491 177.642360 -15.428696 1.272975 0.137499 84.163162 0.011814 0.735653 21.454557 -0.003102 -0.000018 5.934035 -0.421410 0.507013 1.851541 -0.850645 1.007488 1.533456 -0.844401 1.012606 15.882662 6.558309 -1.849915 -15.186690 -1.980739 -1.147725 -146.218286 -76.316285 -35.976843 -21.256018 63.103298 29.647485 -29.280276 -17.366446 1.367284 7.861342 -8.891358 0.198521 -178.866399 70.832327 2.506808 -8.212240 -58.005347 -33.976827 -25.462366 17.619315 -1.341312 5.399113 -4.752304 -12.795501 
292.681488 91.839767 405.333801 89.251441 3.943702 86.513785 -174.659863 -2.441692 178.146606 -9.970615 -2.549253 -3.529631 84.100795 2.171491 -1.610044 21.454551 0.003110 0.000002 -178.600527 0.770983 177.791204 -16.181101 0.932024 -0.265010 84.377186 0.299175 0.749809 21.454555 -0.003105 -0.000018 5.929025 -0.396115 0.529689 1.841531 -0.800392 1.053233 1.523468 -0.793880 1.058059 15.804358 6.659913 -1.916832 -15.321330 -1.982758 -1.208504 -149.319820 -76.239104 -32.813885 -24.085410 63.729285 28.987832 -24.107166 -15.274873 1.145921 8.384172 -5.040401 -3.803496 -179.595398 70.697710 1.753221 -8.218303 -58.411388 -34.651121 -24.881189 17.238412 -1.307819 6.155931 -8.231183 -14.254688 
292.770386 91.772339 405.403900 89.130663 3.882090 85.697222 -174.675381 -2.391997 177.258968 -10.268416 -2.426005 -3.511456 84.436841 2.151977 -1.640962 21.454553 0.003084 -0.000002 -179.386094 0.563505 178.247939 -17.519201 0.420797 -0.833103 84.668773 0.686269 0.664226 21.454558 -0.003117 -0.000017 5.919372 -0.372776 0.523380 1.822492 -0.753498 1.041041 1.504433 -0.747051 1.045589 15.582472 6.925604 -1.910900 -15.245042 -2.107015 -1.140360 -151.698802 -76.131379 -30.387665 -24.630501 64.048282 29.868079 -21.248326 -13.779695 1.011130 8.693621 -1.698472 -3.803255 179.742083 70.622565 1.068918 -7.664712 -58.716070 -35.158744 -25.224237 17.073753 -1.302882 6.771708 -8.172522 -14.402461 
292.840210 91.653763 405.420685 89.088056 3.705349 84.539553 -174.866039 -2.272517 176.122425 -10.720494 -2.308601 -3.540409 84.867730 2.152666 -1.735947 21.454553 0.003089 -0.000001 178.962732 0.367006 178.624774 -20.150016 -0.045825 -1.220734 85.139510 0.925118 0.448234 21.454558 -0.003107 -0.000017 5.901912 -0.373748 0.519494 1.787596 -0.755230 1.033406 1.469521 -0.748838 1.037941 15.177963 7.304927 -1.841896 -15.104246 -2.230666 -0.990685 -153.012807 -76.191990 -29.043976 -23.160294 64.440226 32.235962 -20.416018 -13.318941 0.971459 7.944020 0.707971 -0.999841 179.429903 70.545704 0.745668 -7.370858 -58.791024 -35.750306 -25.618253 17.184607 -1.316333 6.603273 -5.018660 -13.767208 
292.945312 91.446838 405.320587 89.282013 3.360229 83.034931 -175.471794 -1.949211 174.703644 -11.574486 -2.223705 -3.583840 85.477454 2.158182 -1.869754 21.454555 0.003103 0.000002 176.396930 0.408005 -179.710583 -24.039833 -0.303412 -1.140175 85.755757 0.800802 0.054896 21.454558 -0.003106 -0.000018 5.875865 -0.425817 0.523731 1.735028 -0.859182 1.041287 1.416944 -0.852751 1.046458 14.676690 7.680296 -1.767111 -15.223749 -2.286868 -0.843481 -153.079183 -76.382518 -28.971275 -19.797923 64.597313 35.591655 -21.735170 -13.229251 0.982329 6.765572 1.447134 2.008411 179.815207 70.491958 1.141814 -7.539480 -58.663060 -36.067903 -26.324309 17.415627 -1.342805 6.354722 -1.456451 -12.054512 
293.107788 91.077782 405.281189 89.955968 3.290328 81.279907 -175.919145 -1.135113 173.570352 -12.633622 -2.297027 -3.900974 86.281832 2.357301 -1.998995 21.454551 0.003099 0.000001 173.514877 1.187889 -176.211982 -28.917057 -0.179901 -0.240138 86.765956 0.056973 -0.614223 21.454560 -0.003104 -0.000016 5.926272 -0.588424 0.516041 1.834497 -1.184713 1.023100 1.516386 -1.178388 1.030217 13.977165 7.877520 -1.779119 -15.489021 -2.126234 -0.848041 -152.175208 -76.477034 -29.891862 -16.030406 64.034963 40.899579 -23.930632 -13.367302 1.021689 5.858908 0.421928 2.660622 179.853607 70.524265 1.182029 -7.848267 -58.404463 -35.960051 -27.469515 17.776312 -1.385703 6.137704 0.916041 -10.070881 
293.232910 90.832108 405.365509 90.365370 3.459544 79.499857 -175.730823 -0.482196 173.156934 -12.998660 -2.448280 -4.669075 86.811766 2.855566 -2.181721 21.454551 0.003097 0.000000 171.697104 1.694501 -170.731602 -32.196409 -0.879933 0.709484 87.011972 -0.675628 -1.144891 21.454555 -0.003104 -0.000017 6.046709 -0.713245 0.511084 2.074413 -1.435310 1.009774 1.756274 -1.429044 1.018427 13.208647 7.982585 -1.890452 -16.063287 -1.783715 -1.013125 -152.079025 -76.604984 -29.986600 -12.312759 62.986966 45.977077 -26.415690 -13.617619 1.076651 5.013139 -1.923959 1.880226 -179.797599 70.436339 1.539980 -8.545648 -57.863573 -35.769854 -28.718094 18.170009 -1.433704 5.878485 2.738989 -8.274001 
293.268585 90.696167 405.590698 90.433105 3.754220 77.581680 -175.077242 -0.042889 172.754663 -12.929979 -2.467930 -5.543570 87.166820 3.409529 -2.447120 21.454551 0.003093 -0.000001 171.258305 1.536892 -167.280622 -33.178180 -1.347107 2.193662 87.197255 -1.720817 -1.387141 21.454560 -0.003102 -0.000018 6.176265 -0.775422 0.550597 2.332513 -1.561521 1.085979 2.014341 -1.554812 1.095386 12.624495 8.130110 -2.235334 -16.643042 -1.517243 -1.410950 -151.449295 -76.601931 -30.629447 -9.892153 61.744446 49.774683 -28.177302 -13.577956 1.104478 4.200918 -4.124847 0.872101 -179.129812 70.264492 2.225579 -9.335365 -57.144641 -35.690132 -29.924787 18.435954 -1.473996 5.891355 4.261371 -7.102285 
